<?xml version="1.0" encoding="utf-8"?>
<!-- Generator: Adobe Illustrator 23.0.3, SVG Export Plug-In . SVG Version: 6.00 Build 0)  -->
<svg version="1.1" id="Layer_1" xmlns="http://www.w3.org/2000/svg" xmlns:xlink="http://www.w3.org/1999/xlink" x="0px" y="0px"
	 viewBox="0 0 10 9" style="enable-background:new 0 0 10 9;" xml:space="preserve">
<style type="text/css">
	.st0{fill:#999999;}
</style>
<path class="st0" d="M8.8,1.8H7.6c0-0.6,0-1.1-0.1-1.4c-0.1-0.6-5-0.5-5.1,0c0,0.3,0,0.8,0,1.4H1.2C0.6,1.8,0,2.3,0,3v4.8
	C0,8.5,0.6,9,1.2,9h7.5C9.4,9,10,8.5,10,7.8V3C10,2.3,9.5,1.8,8.8,1.8z M3.3,1.1c0-0.2,3.4-0.1,3.4,0c0,0.2,0,0.5,0,0.8H3.3
	C3.3,1.5,3.3,1.2,3.3,1.1z"/>
</svg>
