<svg xmlns="http://www.w3.org/2000/svg" viewBox="0 0 81.19 81.2"><defs><style>.a{fill:#9951e0;}</style></defs><title>evidence</title><path class="a" d="M68.69,84.68c0-1.52-1.69-2.88-4.56-3.89-1.53,3.55-8.46,4.73-14.38,4.73s-12.86-1.35-14.38-4.73c-2.88,1-4.4,2.37-4.4,3.89,0,3.21,8.46,5.92,18.78,5.92C60.23,90.6,68.69,87.89,68.69,84.68Z" transform="translate(-9.41 -9.4)"/><path class="a" d="M21.16,63.7c8.62,0,12.52-6.76,11.67-8.46L22.51,32.07c6.26,2.7,17.42-.17,24.53-5.25h.17V75.37c-5.41.34-9.64,1.87-9.64,3.73C37.57,81.3,43,83,49.75,83S61.93,81.3,61.93,79.1c0-1.86-4.06-3.39-9.65-3.73V26.82h.17c7.11,5.08,18.27,8,24.53,5.25l-10,23h0c-.68,1.7,3,8.46,11.84,8.46,8.63,0,12.35-6.76,11.68-8.46h0l-11-24.69h0c0-.34-.51-.68-1-.51-9.13,4.4-14.37-5.58-26-8.63V18.87A5,5,0,0,0,55,14.47,5.09,5.09,0,0,0,49.92,9.4a5.21,5.21,0,0,0-5.08,5.07,5,5,0,0,0,2.54,4.4v2.37c-4.23,1-9.81,4.23-13.37,6.77-5.58,3.89-10,3-12.51,1.86a.83.83,0,0,0-1,.51h0l-11,24.86h0C8.81,56.94,12.53,63.7,21.16,63.7Zm67-9.3H79.52V34.77Zm-10.32,0H69.2l8.63-19.63Zm-47.2,0H22l-.17-19.63ZM20.14,34.77l.17,19.63H11.68Z" transform="translate(-9.41 -9.4)"/></svg>